# xmcd
#
# Track frame offsets:
#	150
#	20685
#	40920
#	61655
#	76957
#	97280
#	117042
#	133767
#	155045
#	177040
#	192087
#	212627
#	231545
#	250932
#	268067
#	288995
#
# Disc length: 4041 seconds
#
# Revision: 1
# Processed by: cddbd v1.5.2PL0 Copyright (c) Steve Scherf et al.
# Submitted via: EZCDAudioConverter 3.0.8.1
#
DISCID=e60fc710
DTITLE=CASH BOX - SOM NA CAIXA [CD OXX 1178-1)
DYEAR=1996
DGENRE=FUNK
TTITLE0=MC BILL - RAP DO MENTIROSO
TTITLE1=MC MARQUINHO and MC LELECO - RAP DO AMIGO 2 
TTITLE2=DJ'S CASH BOX and MAD ZOO - MONTAGEM - CRUEL 
TTITLE3=DJ'S CASH BOX and MAD ZOO - MONTAGEM - DENDÊ 
TTITLE4=MC NANDO and MC COELHO - RAP ESPERANÇA BRASIL
TTITLE5=SIMPLE DANCE - RAP DO BONDE  
TTITLE6=DJ'S CASH BOX and MAD ZOO - MONTAGEM - DONA MARTA
TTITLE7=MC RODRIGO and MC FRANK - RAP DO BUG WOOG 
TTITLE8=MC AMILCA and MC CHOCOLATE - RAP EU QUERO VER
TTITLE9=LUIZ CLAUDIO and CACAU DO DENDÊ - RAP DA CONQUISTA
TTITLE10=MC BILL - RAP DO MENTIROSO (PLAYBACK) 
TTITLE11=MC MARQUINHO and MC LELECO - RAP DO AMIGO 2 (PLAYBACK)
TTITLE12=MC NANDO and MC COELHO - RAP ESPERANÇA BRASIL (PLAYBACK)
TTITLE13=SIMPLE DANCE - RAP DO BONDE (PLAYBACK) 
TTITLE14=MC RODRIGO and MC FRANK - RAP DO BUG WOOG (PLAYBACK) 
TTITLE15=LUIZ CLAUDIO and CACAU DO DENDÊ - RAP DA CONQUISTA (PLAYBACK) 
EXTD=
EXTT0=
EXTT1=
EXTT2=
EXTT3=
EXTT4=
EXTT5=
EXTT6=
EXTT7=
EXTT8=
EXTT9=
EXTT10=
EXTT11=
EXTT12=
EXTT13=
EXTT14=
EXTT15=
PLAYORDER=
